# xmcd
#
# Track frame offsets: 
#        150
#        11932
#        26652
#        36775
#        49120
#        60545
#        72605
#        80692
#        91150
#        105952
#        120257
#        133327
#        146175
#        156632
#        170835
#        181687
#
# Disc length: 2564 seconds
#
# Revision: 4
# Processed by: cddbd v1.5.2PL0 Copyright (c) Steve Scherf et al.
# Submitted via: ExactAudioCopy v1.0b1
#
DISCID=e30a0210
DTITLE=J.B. Lenoir - Natural Man (+2)[Remaster]
DYEAR=1970
DGENRE=Blues
TTITLE0=Natural Man (mono)
TTITLE1=Don't Dog Your Woman (mono)
TTITLE2=Let Me Die With The One I Love (mono)
TTITLE3=Carrie Lee (mono)
TTITLE4=Mama, What About Your Daughter (mono)
TTITLE5=If I Give My Love To You (mono)
TTITLE6=Five Years (mono)
TTITLE7=Don't Touch My Head (mono)
TTITLE8=I've Been Down So Long (mono)
TTITLE9=What Have I Done (mono)
TTITLE10=Eisenhower Blues (mono)
TTITLE11=Korea Blues (mono)
TTITLE12=Everybody Wants To Know (mono)
TTITLE13=I'm In Korea (mono)
TTITLE14=She Don't Know (mono)
TTITLE15=Mama, Talk To Your Daughter (mono)
EXTD=
EXTT0=
EXTT1=
EXTT2=
EXTT3=
EXTT4=
EXTT5=
EXTT6=
EXTT7=
EXTT8=
EXTT9=
EXTT10=
EXTT11=
EXTT12=
EXTT13=
EXTT14=
EXTT15=
PLAYORDER=
